{"title":"A Day To Remember - All Signs Point To Lauderdale HD 720p","uid":6490492,"size":39135266,"categoryP":"video","categoryS":"music_videos","magnet":"?xt=urn:btih:ae250948116c0b89bb6ef27790531143c8a6ece6&amp;dn=A+Day+To+Remember+-+All+Signs+Point+To+Lauderdale+HD+720p&amp;tr=udp%3A%2F%2Ftracker.openbittorrent.com%3A80&amp;tr=udp%3A%2F%2Fopen.demonii.com%3A1337&amp;tr=udp%3A%2F%2Ftracker.coppersurfer.tk%3A6969&amp;tr=udp%3A%2F%2Fexodus.desync.com%3A6969","seeders":1,"leechers":0,"uploader":"HaUnTiNg.SuMMeR","files":-1,"time":1308863336,"description":"========== A Day To Remmember - All Signs Point To Lauderdale HD ==============\n\nFormat                           : MPEG-4\nFormat profile                   : Base Media / Version 2\nCodec ID                         : mp42\nFile size                        : 37.3 MiB\nDuration                         : 3mn 24s\nOverall bit rate                 : 1 528 Kbps\nEncoded date                     : UTC 2011-06-14 23:39:51\nTagged date                      : UTC 2011-06-14 23:39:51\n\nVideo\nID                               : 1\nFormat                           : AVC\nFormat/Info                      : Advanced Video Codec\nFormat profile                   : &lt;a class=&quot;__cf_email__&quot; href=&quot;/cdn-cgi/l/email-protection&quot; data-cfemail=&quot;fcb4959b94bcb0cfd2cd&quot;&gt;[email&amp;#160;protected]&lt;/a&gt;&lt;script cf-hash='f9e31' type=&quot;text/javascript&quot;&gt;\n/* &lt;![CDATA[ */!function(){try{var t=&quot;currentScript&quot;in document?document.currentScript:function(){for(var t=document.getElementsByTagName(&quot;script&quot;),e=t.length;e--;)if(t[e].getAttribute(&quot;cf-hash&quot;))return t[e]}();if(t&amp;&amp;t.previousSibling){var e,r,n,i,c=t.previousSibling,a=c.getAttribute(&quot;data-cfemail&quot;);if(a){for(e=&quot;&quot;,r=parseInt(a.substr(0,2),16),n=2;a.length-n;n+=2)i=parseInt(a.substr(n,2),16)^r,e+=String.fromCharCode(i);e=document.createTextNode(e),c.parentNode.replaceChild(e,c)}}}catch(u){}}();/* ]]&gt; */&lt;/script&gt;\nFormat settings, CABAC           : Yes\nFormat settings, ReFrames        : 1 frame\nCodec ID                         : avc1\nCodec ID/Info                    : Advanced Video Coding\nDuration                         : 3mn 24s\nBit rate mode                    : Variable\nBit rate                         : 1 374 Kbps\nMaximum bit rate                 : 2 938 Kbps\nWidth                            : 1 280 pixels\nHeight                           : 720 pixels\nDisplay aspect ratio             : 16:9\nFrame rate mode                  : Variable\nFrame rate                       : 23.976 fps\nMinimum frame rate               : 17.241 fps\nMaximum frame rate               : 24.390 fps\nColor space                      : YUV\nChroma subsampling               : 4:2:0\nBit depth                        : 8 bits\nScan type                        : Progressive\nBits/(Pixel*Frame)               : 0.062\nStream size                      : 33.6 MiB (90%)\nTagged date                      : UTC 2011-06-14 23:39:53\n\nAudio\nID                               : 2\nFormat                           : AAC\nFormat/Info                      : Advanced Audio Codec\nFormat version                   : Version 4\nFormat profile                   : LC\nFormat settings, SBR             : No\nCodec ID                         : 40\nDuration                         : 3mn 24s\nBit rate mode                    : Variable\nBit rate                         : 148 Kbps\nMaximum bit rate                 : 193 Kbps\nChannel(s)                       : 2 channels\nChannel positions                : Front: L R\nSampling rate                    : 44.1 KHz\nStream size                      : 3.62 MiB (10%)\nTitle                            : IsoMedia File Produced by Google, 5-11-2011\nEncoded date                     : UTC 2011-06-14 23:39:52\nTagged date                      : UTC 2011-06-14 23:39:53\n\n========================= SCREEN SHOTS ====================================\n\n                        &lt;a href=&quot; http://bayimg.com/eaiFcAADm&quot; rel=&quot;nofollow&quot; target=&quot;_NEW&quot;&gt; http://bayimg.com/eaiFcAADm&lt;/a&gt;\n                        &lt;a href=&quot; http://bayimg.com/EaIfGAAdM&quot; rel=&quot;nofollow&quot; target=&quot;_NEW&quot;&gt; http://bayimg.com/EaIfGAAdM&lt;/a&gt;\n                        &lt;a href=&quot; http://bayimg.com/eaIFLAaDM&quot; rel=&quot;nofollow&quot; target=&quot;_NEW&quot;&gt; http://bayimg.com/eaIFLAaDM&lt;/a&gt;\n\n\n============================ FOLLOW ME ON TWEETER AND FACEBOOK =================\n\n        SEARCH FOR   haunting_summer\n\n  http: // www. facebook. com/ pages/ HaUnTiNgSuMMeR-ToRrEnTs/ 192812490771363\n\n=================================================================================\n\n--------------- PLZ RATE +/- THE QUALITY N COMMENT IF POSSIBLE -----------------\n=================================================================================\t\t\n","torrent":{"xt":"urn:btih:ae250948116c0b89bb6ef27790531143c8a6ece6","amp;dn":"A+Day+To+Remember+-+All+Signs+Point+To+Lauderdale+HD+720p","amp;tr":["udp%3A%2F%2Ftracker.openbittorrent.com%3A80","udp%3A%2F%2Fopen.demonii.com%3A1337","udp%3A%2F%2Ftracker.coppersurfer.tk%3A6969","udp%3A%2F%2Fexodus.desync.com%3A6969"],"infoHash":"ae250948116c0b89bb6ef27790531143c8a6ece6","infoHashBuffer":{"type":"Buffer","data":[174,37,9,72,17,108,11,137,187,110,242,119,144,83,17,67,200,166,236,230]},"announce":[],"urlList":[]}}